<svg width="19" height="22" viewBox="0 0 19 22" fill="none" xmlns="http://www.w3.org/2000/svg">
<path d="M8.20022 5.61655C8.35692 5.45972 8.6 5.46187 8.7567 5.6187C9.31116 6.17512 9.83147 6.7745 10.3176 7.4233C10.5386 7.11394 10.7897 6.77665 11.0609 6.50167C11.2196 6.34269 11.4647 6.34269 11.6234 6.50381C12.3185 7.21276 12.9071 8.14944 13.321 9.03884C13.7288 9.91536 14 10.8112 14 11.4428C14 14.1841 11.9951 16.5 9.5 16.5C6.97679 16.5 5 14.182 5 11.4407C5 10.6157 5.35759 9.60815 5.91205 8.61133C6.47254 7.59946 7.26406 6.54463 8.20022 5.61655ZM9.53415 14.4376C10.0424 14.4376 10.4924 14.2872 10.9163 13.9865C11.7621 13.3548 11.9891 12.0916 11.4808 11.0991C11.3904 10.9057 11.1594 10.8929 11.0288 11.0561L10.5225 11.6856C10.39 11.8489 10.1509 11.8446 10.0263 11.6748C9.69487 11.2237 9.10223 10.4181 8.76473 9.96048C8.63817 9.78861 8.3971 9.78646 8.26853 9.95833C7.58951 10.8714 7.24799 11.4471 7.24799 12.0938C7.25 13.5654 8.26652 14.4376 9.53415 14.4376Z" fill="#FFCC36"/>
</svg>
